<svg width="32.000000" height="32.000000" viewBox="0 0 32 32" fill="none" xmlns="http://www.w3.org/2000/svg" xmlns:xlink="http://www.w3.org/1999/xlink">
	<desc>
			Created with Pixso.
	</desc>
	<defs/>
	<path id="Arrow 1 (Stroke)" d="M26.6 4.51L17.06 14.06C16.47 14.64 15.52 14.64 14.93 14.06L5.39 4.51C4.8 3.92 4.8 2.97 5.39 2.39C5.97 1.8 6.92 1.8 7.51 2.39L14.5 9.37L14.5 2C14.5 1.17 15.17 0.5 16 0.5C16.82 0.5 17.5 1.17 17.5 2L17.5 9.37L24.48 2.39C25.07 1.8 26.02 1.8 26.6 2.39C27.19 2.97 27.19 3.92 26.6 4.51Z" fill="#9854F6" fill-opacity="1.000000" fill-rule="evenodd"/>
	<path id="Arrow 2 (Stroke)" d="M5.39 27.48L14.93 17.93C15.52 17.35 16.47 17.35 17.06 17.93L26.6 27.48C27.19 28.07 27.19 29.02 26.6 29.6C26.02 30.19 25.07 30.19 24.48 29.6L17.5 22.62L17.5 30C17.5 30.82 16.82 31.5 16 31.5C15.17 31.5 14.5 30.82 14.5 30L14.5 22.62L7.51 29.6C6.92 30.19 5.97 30.19 5.39 29.6C4.8 29.02 4.8 28.07 5.39 27.48Z" fill="#9854F6" fill-opacity="1.000000" fill-rule="evenodd"/>
	<path id="Arrow 3 (Stroke)" d="M27.48 26.6L17.93 17.06C17.35 16.47 17.35 15.52 17.93 14.93L27.48 5.39C28.07 4.8 29.02 4.8 29.6 5.39C30.19 5.97 30.19 6.92 29.6 7.51L22.62 14.5L30 14.5C30.82 14.5 31.5 15.17 31.5 16C31.5 16.82 30.82 17.5 30 17.5L22.62 17.5L29.6 24.48C30.19 25.07 30.19 26.02 29.6 26.6C29.02 27.19 28.07 27.19 27.48 26.6Z" fill="#9854F6" fill-opacity="1.000000" fill-rule="evenodd"/>
	<path id="Arrow 4 (Stroke)" d="M4.51 5.39L14.06 14.93C14.64 15.52 14.64 16.47 14.06 17.06L4.51 26.6C3.92 27.19 2.97 27.19 2.39 26.6C1.8 26.02 1.8 25.07 2.39 24.48L9.37 17.5L2 17.5C1.17 17.5 0.5 16.82 0.5 16C0.5 15.17 1.17 14.5 2 14.5L9.37 14.5L2.39 7.51C1.8 6.92 1.8 5.97 2.39 5.39C2.97 4.8 3.92 4.8 4.51 5.39Z" fill="#9854F6" fill-opacity="1.000000" fill-rule="evenodd"/>
</svg>
